# xmcd
#
# Track frame offsets:
#	150
#	42751
#	67120
#	106957
#	123768
#	147387
#	176191
#	205127
#	233929
#	258865
#	285294
#	308970
#
# Disc length: 4510 seconds
#
# Revision: 0
# Processed by: cddbd v1.5.2PL0 Copyright (c) Steve Scherf et al.
# Submitted via: audiograbber 1.83.01
#
DISCID=ac119c0c
DTITLE=Various Artist - Azuli Autumn Tunes
DYEAR=2006
DGENRE=House
TTITLE0=Ad Finem - If You Fall (Mas Collective Club Mix) 
TTITLE1=Bini and Martini - Burning (Bini and Martini 3001 Dub Mix)
TTITLE2=Kluster - My Love (Dr. Kucho Weekend Mix)
TTITLE3=Mama Look Crew - Oh No No No (Love Da Mix)
TTITLE4=Sonique - Tonight (Kurds Piano Soul Mix) 
TTITLE5=Trancesetters - Beatfreak (Kamisshakxxl Mix) 
TTITLE6=Ubu - Pixels (Hipp-E-S Twisted Mix) 
TTITLE7=Sucker Dj's - Its Got To Be (Chus and Ceballos Stereo Mix) 
TTITLE8=Lee Coombs Feat. Katherine Ellis - Shiver (Original Mix) 
TTITLE9=Sessomatto - I Need Sombody (Bini and Martini High Voltage Mix)
TTITLE10=Feela - Sweet Temptation (Bini and Martini Mix 2) 
TTITLE11=Pure Orange - Save A Prayer (Vocal Mix) 
EXTD=
EXTT0=
EXTT1=
EXTT2=
EXTT3=
EXTT4=
EXTT5=
EXTT6=
EXTT7=
EXTT8=
EXTT9=
EXTT10=
EXTT11=
PLAYORDER=
